<svg height="593" viewBox="0 0 400 593" width="400" xmlns="http://www.w3.org/2000/svg" xmlns:xlink="http://www.w3.org/1999/xlink"><defs><linearGradient id="a" x1="72.75%" x2="27.25%" y1="0%" y2="100%"><stop offset="0" stop-color="#ff6a3a"/><stop offset="1" stop-color="#ff527b"/></linearGradient><linearGradient id="b" x1="22.319%" x2="99.127%" y1="28.497%" y2="70.858%"><stop offset="0" stop-color="#ff3e83"/><stop offset="1" stop-color="#ff9f2e"/></linearGradient><linearGradient id="c" x1="50%" x2="50%" y1="0%" y2="100%"><stop offset="0" stop-color="#ffb443"/><stop offset="1" stop-color="#ff5b64" stop-opacity="0"/></linearGradient><linearGradient id="d" x1="50%" x2="50%" y1="0%" y2="100%"><stop offset="0" stop-color="#f8f8f8"/><stop offset="1" stop-color="#eee"/></linearGradient><linearGradient id="e" x1="50%" x2="50%" y1="0%" y2="100%"><stop offset="0" stop-color="#cacbe8"/><stop offset="1" stop-color="#eee"/><stop offset="1" stop-color="#cacbe8"/></linearGradient><linearGradient id="f" x1="97.791%" x2="7.729%" y1="26.944%" y2="71.879%"><stop offset="0" stop-color="#ff9049"/><stop offset="1" stop-color="#ff5e5e"/></linearGradient><linearGradient id="g" x1="50%" x2="50%" y1="0%" y2="100%"><stop offset="0" stop-color="#ff6a3d"/><stop offset="1" stop-color="#ff5b66"/></linearGradient><path id="h" d="m0 26c0-14.36 11.64-26 26-26h381c14.36 0 26 11.64 26 26v237c0 14.36-11.64 26-26 26h-381c-14.36 0-26-11.64-26-26z"/><path id="i" d="m0 11c0-6.075 4.925-11 11-11h379c6.075 0 11 4.925 11 11v237c0 6.075-4.925 11-11 11h-379c-6.075 0-11-4.925-11-11z"/><path id="j" d="m0 11c0-6.075 4.925-11 11-11h379c6.075 0 11 4.925 11 11v237c0 6.075-4.925 11-11 11h-379c-6.075 0-11-4.925-11-11z"/><path id="k" d="m0 11c0-6.075 4.925-11 11-11h411c6.075 0 11 4.925 11 11v229c0 6.075-4.925 11-11 11h-411c-6.075 0-11-4.925-11-11z"/><path id="l" d="m0 4a4 4 0 0 1 4-4h90a4 4 0 0 1 4 4v122a4 4 0 0 1 -4 4h-90a4 4 0 0 1 -4-4z"/><filter id="m" height="141.5%" width="127.7%" x="-13.9%" y="-12.5%"><feOffset dy="24" in="SourceAlpha" result="shadowOffsetOuter1"/><feGaussianBlur in="shadowOffsetOuter1" result="shadowBlurOuter1" stdDeviation="16"/><feColorMatrix in="shadowBlurOuter1" values="0 0 0 0 0 0 0 0 0 0 0 0 0 0 0 0 0 0 0.100000001 0"/></filter><filter id="n" height="146.3%" width="129.9%" x="-15%" y="-13.9%"><feOffset dy="24" in="SourceAlpha" result="shadowOffsetOuter1"/><feGaussianBlur in="shadowOffsetOuter1" result="shadowBlurOuter1" stdDeviation="16"/><feColorMatrix in="shadowBlurOuter1" values="0 0 0 0 0 0 0 0 0 0 0 0 0 0 0 0 0 0 0.100000001 0"/></filter><filter id="o" height="146.3%" width="129.9%" x="-15%" y="-13.9%"><feOffset dy="24" in="SourceAlpha" result="shadowOffsetOuter1"/><feGaussianBlur in="shadowOffsetOuter1" result="shadowBlurOuter1" stdDeviation="16"/><feColorMatrix in="shadowBlurOuter1" values="0 0 0 0 0 0 0 0 0 0 0 0 0 0 0 0 0 0 0.100000001 0"/></filter><filter id="p" height="147.8%" width="127.7%" x="-13.9%" y="-14.3%"><feOffset dy="24" in="SourceAlpha" result="shadowOffsetOuter1"/><feGaussianBlur in="shadowOffsetOuter1" result="shadowBlurOuter1" stdDeviation="16"/><feColorMatrix in="shadowBlurOuter1" values="0 0 0 0 0 0 0 0 0 0 0 0 0 0 0 0 0 0 0.100000001 0"/></filter><mask id="q" fill="#fff"><rect fill="#fff" fill-rule="evenodd" height="593" rx="16" width="400"/></mask><mask id="r" fill="#fff"><use fill="#fff" fill-rule="evenodd" xlink:href="#j"/></mask><mask id="s" fill="#fff"><use fill="#fff" fill-rule="evenodd" xlink:href="#l"/></mask></defs><g fill="none" fill-rule="evenodd"><rect height="593" rx="16" width="400"/><path d="m0 0h400v593h-400z" fill="url(#a)" fill-rule="nonzero" mask="url(#q)"/><g mask="url(#q)"><g fill-rule="nonzero"><g transform="translate(-192 211)"><use fill="#000" filter="url(#m)" xlink:href="#h"/><use fill="#242742" xlink:href="#h"/></g><g transform="translate(-176 226)"><use fill="#000" filter="url(#n)" xlink:href="#i"/><use fill="url(#b)" xlink:href="#i"/><use fill="#000" filter="url(#o)" xlink:href="#j"/><use fill="url(#b)" xlink:href="#j"/><g fill="url(#c)"><circle cx="390" cy="244" mask="url(#r)" r="158"/><circle cx="136.446" cy="-34.554" mask="url(#r)" r="158" transform="matrix(-.70710678 -.70710678 .70710678 -.70710678 257.36126 37.494524)"/></g></g><g transform="translate(129 115)"><use fill="#000" filter="url(#p)" xlink:href="#k"/><use fill="url(#d)" xlink:href="#k"/><path d="m0 11c0-6.075 4.925-11 11-11h85v251h-85c-6.075 0-11-4.925-11-11z" fill="url(#e)"/><path d="m14 50.5a3.5 3.5 0 0 1 3.5-3.5h61a3.5 3.5 0 0 1 0 7h-61a3.5 3.5 0 0 1 -3.5-3.5zm0 20a3.5 3.5 0 0 1 3.5-3.5h54a3.5 3.5 0 0 1 0 7h-54a3.5 3.5 0 0 1 -3.5-3.5zm0 20a3.5 3.5 0 0 1 3.5-3.5h61a3.5 3.5 0 0 1 0 7h-61a3.5 3.5 0 0 1 -3.5-3.5zm0 20a3.5 3.5 0 0 1 3.5-3.5h39a3.5 3.5 0 1 1 0 7h-39a3.5 3.5 0 0 1 -3.5-3.5z" fill="#babbdb"/><path d="m0 11c0-6.075 4.925-11 11-11h411c6.075 0 11 4.925 11 11v20h-433z" fill="#242742"/><g transform="translate(16 9)"><circle cx="6.5" cy="6.5" fill="#ff6464" r="6.5"/><circle cx="28.5" cy="6.5" fill="#ff9255" r="6.5"/><circle cx="50.5" cy="6.5" fill="#6bd4a8" r="6.5"/></g></g></g><g transform="translate(246 93)"><g fill-rule="nonzero"><path d="m0 4a4 4 0 0 1 4-4h90a4 4 0 0 1 4 4v122a4 4 0 0 1 -4 4h-90a4 4 0 0 1 -4-4z" fill="#fff"/><use fill="#fff" xlink:href="#l"/><path d="m108.12 28.878a3 3 0 0 1 .002 4.243l-25.275 25.289c-4.348 4.351-11.4 4.351-15.749 0a5.132 5.132 0 0 0 -7.26 0l-17.432 17.443a8.668 8.668 0 0 1 -12.262 0 2.668 2.668 0 0 0 -3.774 0l-32.248 32.268a3 3 0 1 1 -4.244-4.242l32.248-32.267a8.668 8.668 0 0 1 12.262 0 2.668 2.668 0 0 0 3.774 0l17.432-17.442c4.348-4.35 11.4-4.35 15.748 0a5.132 5.132 0 0 0 7.26 0l25.276-25.29a3 3 0 0 1 4.243-.002z" fill="url(#f)" mask="url(#s)"/><path d="m49 150a4 4 0 0 1 4-4h120a4 4 0 0 1 4 4v144a4 4 0 0 1 -4 4h-120a4 4 0 0 1 -4-4z" fill="#fff"/></g><path d="m46.5 79c17.95 0 32.5-14.55 32.5-32.5s-14.55-32.5-32.5-32.5-32.5 14.55-32.5 32.5 14.55 32.5 32.5 32.5zm0 14c25.681 0 46.5-20.819 46.5-46.5s-20.819-46.5-46.5-46.5-46.5 20.819-46.5 46.5 20.819 46.5 46.5 46.5z" fill="url(#g)" transform="translate(67 175)"/><path d="m96.61 216.72c0 2.27.589 4.067 1.766 5.39 1.177 1.313 2.78 1.969 4.812 1.969 1.886 0 3.36-.672 4.422-2.016 1.073-1.344 1.61-3.02 1.61-5.031h-1.172c0 1.146-.318 2.057-.954 2.734-.635.677-1.427 1.016-2.375 1.016-1.01 0-1.76-.339-2.25-1.016-.49-.687-.734-1.692-.734-3.015 0-1.51.245-2.594.734-3.25.5-.667 1.24-1 2.22-1 1.051 0 1.869.432 2.452 1.297.584.864.875 2.411.875 4.64l.14.625c0 3.302-.723 5.646-2.171 7.031-1.448 1.386-3.495 2.073-6.14 2.063h-.704v3.969h.813c4.25-.042 7.495-1.193 9.734-3.453 2.25-2.271 3.375-5.329 3.375-9.172v-.813c0-3.458-.776-5.958-2.328-7.5-1.552-1.552-3.557-2.328-6.016-2.328-2.468 0-4.437.714-5.906 2.14-1.469 1.428-2.203 3.334-2.203 5.72zm27.313 15.28h4.828v-22.75h-4.516l-10.11 14.563v3.438h17.141v-3.891h-4.937l-.813.078h-6.5l4.828-7.562h.157v9.593l-.079.547v5.985z" fill="#242742" fill-rule="nonzero"/></g></g></g></svg>